<svg width="101" height="118" viewBox="0 0 101 118" fill="none" xmlns="http://www.w3.org/2000/svg">
<path d="M39.5455 95.0249L39.5402 95.0186L39.535 95.0124C34.351 88.8962 28.6057 84.4867 24.9058 81.647C24.3786 81.2423 23.8929 80.8695 23.4562 80.5282C12.3924 71.8046 3.5 59.7835 3.5 45.8846C3.5 22.8127 24.2506 3.5 50.5 3.5C76.7494 3.5 97.5 22.8127 97.5 45.8846C97.5 59.7833 88.6079 71.8042 77.5444 80.5277C77.1076 80.8692 76.6217 81.2421 76.0942 81.647C72.3943 84.4867 66.649 88.8962 61.465 95.0124L61.4598 95.0186L61.4545 95.0249C58.2856 98.799 55.2375 102.743 52.7398 106.46C51.9447 107.643 51.191 108.824 50.5 109.986C49.809 108.824 49.0553 107.643 48.2602 106.46C45.7625 102.743 42.7144 98.799 39.5455 95.0249Z" fill="white" stroke="black" stroke-width="7"/>
<path fill-rule="evenodd" clip-rule="evenodd" d="M58.307 21H40.3602C36.5305 21.0212 32.866 22.5628 30.173 25.2859C27.4799 28.0089 25.9789 31.6903 26.0002 35.52V53.1467C25.9789 56.9763 27.4799 60.6577 30.173 63.3807C32.866 66.1037 36.5305 67.6457 40.3602 67.6667H58.307C62.1367 67.6457 65.801 66.1037 68.494 63.3807C71.1873 60.6577 72.688 56.9763 72.667 53.1467V35.52C72.688 31.6903 71.1873 28.0089 68.494 25.2859C65.801 22.5628 62.1367 21.0212 58.307 21Z" stroke="black" stroke-width="5" stroke-linecap="round" stroke-linejoin="round"/>
<path d="M39.3335 36C38.8884 36 38.4698 35.8266 38.1551 35.5119C37.8402 35.197 37.6669 34.7785 37.6669 34.3333C37.6669 34.0026 37.764 33.6824 37.9477 33.4075C38.1316 33.1323 38.3902 32.9201 38.6957 32.7935C38.899 32.7093 39.1136 32.6666 39.3336 32.6666C39.4425 32.6666 39.5519 32.6774 39.6587 32.6987C39.9831 32.7632 40.2782 32.9209 40.5121 33.1548C40.7459 33.3887 40.9037 33.6838 40.9682 34.0082C41.0327 34.3326 40.9999 34.6655 40.8733 34.9711C40.7468 35.2767 40.5345 35.5353 40.2595 35.7191C39.9844 35.9029 39.6643 36 39.3335 36Z" fill="white"/>
<path d="M39.3335 37.6667C38.4495 37.6667 37.6016 37.3155 36.9765 36.6904C36.3514 36.0653 36.0002 35.2174 36.0002 34.3334C36.0002 33.6741 36.1957 33.0296 36.562 32.4815C36.9283 31.9333 37.4489 31.506 38.0579 31.2538C38.667 31.0015 39.3372 30.9354 39.9839 31.0641C40.6305 31.1927 41.2244 31.5102 41.6906 31.9763C42.1567 32.4425 42.4742 33.0364 42.6028 33.6831C42.7313 34.3297 42.6654 34.9999 42.4131 35.609C42.1609 36.218 41.7336 36.7386 41.1854 37.1049C40.6373 37.4712 39.9928 37.6667 39.3335 37.6667Z" fill="black"/>
<path d="M49.3337 46C49.1137 46 48.899 45.9573 48.6957 45.873C48.3903 45.7466 48.1317 45.5343 47.9477 45.2593C47.764 44.9843 47.667 44.664 47.667 44.3333C47.667 43.8883 47.8403 43.4696 48.155 43.155C48.47 42.84 48.8883 42.6666 49.3337 42.6666C49.6643 42.6666 49.9843 42.7636 50.2593 42.9476C50.5347 43.1313 50.7467 43.39 50.8733 43.6956C51 44.001 51.0327 44.334 50.9683 44.6583C50.9037 44.983 50.746 45.278 50.512 45.512C50.2783 45.7456 49.983 45.9033 49.6587 45.968C49.552 45.9893 49.4427 46 49.3337 46Z" fill="white"/>
<path d="M49.3337 41C49.993 41 50.6373 41.1957 51.1853 41.5617C51.7337 41.928 52.161 42.4487 52.413 43.0577C52.6653 43.667 52.7313 44.337 52.603 44.9837C52.4743 45.6303 52.1567 46.2243 51.6907 46.6903C51.2243 47.1567 50.6303 47.474 49.984 47.6027C49.3373 47.7313 48.667 47.6653 48.058 47.413C47.449 47.1607 46.9283 46.7333 46.562 46.1853C46.1957 45.637 46.0003 44.9927 46.0003 44.3333C46.0003 43.4493 46.3513 42.6013 46.9767 41.9763C47.6017 41.3513 48.4497 41 49.3337 41Z" fill="black"/>
<path d="M59.3333 32.6666C59.5533 32.6666 59.768 32.7093 59.9713 32.7935C60.277 32.9201 60.5357 33.1323 60.7193 33.4074C60.903 33.6824 61.0003 34.0026 61.0003 34.3333C61.0003 34.7785 60.827 35.197 60.512 35.5118C60.1973 35.8266 59.7787 36 59.3337 36C59.0027 36 58.6827 35.9029 58.4077 35.7191C58.1327 35.5353 57.9203 35.2767 57.7937 34.9712C57.667 34.6655 57.6343 34.3326 57.699 34.0082C57.7633 33.6838 57.921 33.3887 58.155 33.1548C58.389 32.9209 58.684 32.7632 59.0083 32.6987C59.1153 32.6774 59.2247 32.6666 59.3333 32.6666Z" fill="white"/>
<path d="M59.3337 37.6667C58.6743 37.6667 58.0297 37.4712 57.4817 37.1049C56.9333 36.7386 56.5063 36.218 56.254 35.609C56.0017 34.9999 55.9357 34.3297 56.0643 33.683C56.193 33.0364 56.5103 32.4425 56.9767 31.9763C57.4427 31.5102 58.0367 31.1927 58.6833 31.0641C59.33 30.9354 60 31.0015 60.609 31.2538C61.2183 31.506 61.7387 31.9333 62.105 32.4815C62.4713 33.0296 62.667 33.6741 62.667 34.3334C62.667 35.2174 62.3157 36.0653 61.6907 36.6904C61.0653 37.3155 60.2177 37.6667 59.3337 37.6667Z" fill="black"/>
<path d="M59.3337 52.6666C59.7787 52.6666 60.1973 52.84 60.512 53.1546C60.827 53.4696 61.0003 53.888 61.0003 54.3333C61.0003 54.664 60.903 54.9843 60.7193 55.2593C60.5357 55.5343 60.277 55.7466 59.9713 55.873C59.768 55.9573 59.5533 56 59.3333 56C59.2247 56 59.1153 55.9893 59.0083 55.968C58.684 55.9033 58.389 55.7456 58.155 55.512C57.921 55.278 57.7633 54.983 57.699 54.6583C57.6343 54.334 57.667 54.001 57.7937 53.6956C57.9203 53.39 58.1327 53.1313 58.4077 52.9476C58.6827 52.7636 59.0027 52.6666 59.3337 52.6666Z" fill="white"/>
<path d="M59.3337 51C60.2177 51 61.0653 51.3513 61.6907 51.9763C62.3157 52.6013 62.667 53.4493 62.667 54.3333C62.667 54.9927 62.4713 55.637 62.105 56.1853C61.7387 56.7333 61.2183 57.1607 60.609 57.413C60 57.6653 59.33 57.7313 58.6833 57.6027C58.0367 57.474 57.4427 57.1567 56.9767 56.6903C56.5103 56.2243 56.193 55.6303 56.0643 54.9837C55.9357 54.337 56.0017 53.6667 56.254 53.0577C56.5063 52.4487 56.9333 51.928 57.4817 51.5617C58.0297 51.1953 58.6743 51 59.3337 51Z" fill="black"/>
<path d="M39.3336 56C39.1136 56 38.899 55.9573 38.6957 55.873C38.3902 55.7466 38.1316 55.5343 37.9478 55.2593C37.764 54.9843 37.6669 54.664 37.6669 54.3333C37.6669 53.8883 37.8402 53.4696 38.155 53.155C38.4698 52.84 38.8884 52.6666 39.3335 52.6666C39.6643 52.6666 39.9844 52.7636 40.2594 52.9476C40.5345 53.1313 40.7468 53.39 40.8733 53.6956C40.9999 54.001 41.0327 54.334 40.9682 54.6583C40.9037 54.983 40.7459 55.278 40.5121 55.512C40.2782 55.7456 39.9831 55.9033 39.6587 55.968C39.5519 55.9893 39.4425 56 39.3336 56Z" fill="white"/>
<path d="M39.3335 51C39.9928 51 40.6373 51.1957 41.1854 51.5617C41.7336 51.928 42.1609 52.4487 42.4131 53.0577C42.6654 53.667 42.7313 54.337 42.6028 54.9837C42.4742 55.6303 42.1567 56.2243 41.6906 56.6903C41.2244 57.1567 40.6305 57.474 39.9839 57.6027C39.3372 57.7313 38.667 57.6653 38.0579 57.413C37.4489 57.1607 36.9283 56.7333 36.562 56.1853C36.1957 55.637 36.0002 54.9927 36.0002 54.3333C36.0002 53.4493 36.3514 52.6013 36.9765 51.9763C37.6016 51.3513 38.4495 51 39.3335 51Z" fill="black"/>
</svg>
